<svg fill="#51b3d1" xmlns="http://www.w3.org/2000/svg"  viewBox="0 0 24 24" width="70px" height="70px"><path d="M 5 3 C 3.9 3 3 3.9 3 5 L 3 19 C 3 20.1 3.9 21 5 21 L 19 21 C 20.1 21 21 20.1 21 19 L 21 5 C 21 3.9 20.1 3 19 3 L 5 3 z M 8.9277344 8 L 10.492188 8 L 13.160156 16 L 11.332031 16 L 10.878906 14.363281 L 8.5429688 14.363281 L 8.0898438 16 L 6.2773438 16 L 8.9277344 8 z M 9.7070312 10.164062 L 8.9160156 13.015625 L 10.5 13.015625 L 9.7070312 10.164062 z M 15.734375 10.59375 C 17.263375 10.59375 17.720703 12.080688 17.720703 12.929688 L 17.720703 13.685547 L 14.767578 13.685547 C 14.815578 14.036547 14.959266 14.317297 15.197266 14.529297 C 15.435266 14.740297 15.736609 14.871703 16.099609 14.845703 C 16.636609 14.806703 17.255891 14.484969 17.462891 14.292969 L 17.462891 15.615234 C 17.131891 15.809234 16.458906 16 16.003906 16 C 15.200906 16 14.547969 15.759344 14.042969 15.277344 C 13.538969 14.795344 13.283203 14.152609 13.283203 13.349609 L 13.283203 13.210938 C 13.283203 12.672937 13.575375 10.59375 15.734375 10.59375 z M 15.605469 11.767578 C 15.147469 11.767578 14.765625 12.210937 14.765625 12.710938 L 16.386719 12.710938 C 16.385719 12.245938 16.084469 11.767578 15.605469 11.767578 z"/></svg>